<svg width="118" height="30" viewBox="0 0 118 28" fill="none" xmlns="http://www.w3.org/2000/svg">
<path fill-rule="evenodd" clip-rule="evenodd" d="M36.8037 4.6188C31.5425 4.61849 27.279 8.82751 27.2831 14.0179C27.2873 19.1643 31.5454 23.372 36.7587 23.3825C42.0151 23.3926 46.3332 19.1753 46.3428 14.0226C46.3524 8.86447 42.0459 4.61912 36.8037 4.6188ZM51.1046 13.991C51.1094 21.7149 44.6801 27.9997 36.7733 28C28.9595 28.0006 22.4647 21.6536 22.4551 14.0087C22.4458 6.33565 28.9544 -0.0050521 36.8352 3.02055e-06C44.6776 0.0047422 51.0998 6.30184 51.1046 13.991Z" fill="#014A9E"/>
<path fill-rule="evenodd" clip-rule="evenodd" d="M73.4618 9.27952C73.3601 9.53573 73.2375 9.78583 73.1595 10.0491C72.1464 13.4652 71.1382 16.8829 70.1325 20.3012C69.842 21.2887 69.5014 21.5571 68.4742 21.5636C67.6745 21.5684 66.8748 21.5707 66.0755 21.5626C65.0634 21.5523 64.58 21.1677 64.2893 20.1824C63.2954 16.8162 62.2986 13.4504 61.2984 10.0861C61.2264 9.84505 61.1167 9.61588 61.0246 9.38091C60.9571 9.38735 60.8893 9.39346 60.8218 9.3999C60.7837 9.61749 60.7194 9.83443 60.7111 10.0533C60.54 14.5534 60.3727 19.0539 60.2127 23.5547C60.1779 24.5441 59.9312 24.8702 58.9505 24.9326C58.1274 24.9851 57.2961 24.9877 56.4737 24.933C55.2658 24.8525 54.881 24.3716 54.9945 23.1443C55.1919 21.0083 55.4158 18.8749 55.6218 16.7399C55.9842 12.9782 56.3259 9.2145 56.7107 5.45532C56.8457 4.13885 57.2718 3.80571 58.5849 3.79895C59.6776 3.7938 60.7709 3.77835 61.863 3.80571C63.0283 3.835 63.4864 4.20644 63.8146 5.32238C64.8043 8.68952 65.7866 12.0586 66.7792 15.4248C66.879 15.7631 67.0309 16.0853 67.243 16.6308C67.4436 16.2043 67.5635 16.0099 67.6304 15.7985C68.7448 12.2752 69.8555 8.75036 70.9606 5.22421C71.2904 4.17168 71.6212 3.85463 72.7181 3.81665C74.0225 3.77159 75.3302 3.77641 76.6353 3.80989C77.6986 3.83725 78.1915 4.35161 78.2814 5.48718C78.567 9.09412 78.8249 12.7033 79.1143 16.3099C79.2986 18.6081 79.5155 20.9037 79.7276 23.1993C79.8482 24.5029 79.5791 24.8647 78.2913 24.9384C77.521 24.9822 76.7431 24.9861 75.9741 24.9304C75.0138 24.8602 74.708 24.5416 74.6469 23.574C74.4316 20.1779 74.2384 16.7805 74.0372 13.3834C73.9707 12.2598 73.9118 11.1358 73.836 10.0131C73.8204 9.78132 73.7461 9.55376 73.6985 9.32394C73.6195 9.30913 73.5408 9.29432 73.4618 9.27952Z" fill="#014A9E"/>
<path fill-rule="evenodd" clip-rule="evenodd" d="M0.0141403 14.8023C0.0141403 11.6945 0.0200543 8.5866 0.0107163 5.47875C0.00760366 4.44762 0.34564 3.9385 1.32053 3.84613C2.16873 3.766 3.03406 3.76342 3.88288 3.8368C4.86555 3.92144 5.33806 4.56251 5.32903 5.76227C5.31409 7.718 5.2397 9.67308 5.2039 11.6291C5.18398 12.7214 5.19643 12.7253 6.27497 12.7265C8.34957 12.7291 10.4245 12.7069 12.4985 12.7388C13.1484 12.7491 13.408 12.5872 13.3881 11.847C13.3308 9.73069 13.3554 7.6118 13.346 5.49355C13.3404 4.32372 13.704 3.88861 14.8414 3.81556C15.5389 3.77083 16.2421 3.78241 16.9412 3.80719C18.0094 3.84517 18.5442 4.3308 18.5703 5.43594C18.6083 7.06952 18.5538 8.70535 18.5352 10.3402C18.4959 13.7985 18.4433 17.2569 18.4222 20.7152C18.4169 21.5709 18.5265 22.4263 18.557 23.283C18.5949 24.355 18.2669 24.8168 17.2692 24.9095C16.421 24.9887 15.5573 24.9781 14.7066 24.915C13.9281 24.8577 13.3996 24.4001 13.3246 23.5476C13.2707 22.9374 13.2483 22.3217 13.2558 21.7093C13.2741 20.1285 13.3099 18.5477 13.3544 16.9675C13.3678 16.4929 13.1966 16.2904 12.7229 16.2927C10.3893 16.3052 8.05511 16.3059 5.72154 16.2924C5.27674 16.2898 5.11426 16.4912 5.12515 16.9177C5.17682 18.9529 5.18336 20.9907 5.2923 23.0227C5.35642 24.2163 4.99037 24.8361 3.84584 24.9275C3.07234 24.9893 2.28857 24.9848 1.51383 24.934C0.514036 24.8683 0.00915999 24.2993 0.00231211 23.1665C-0.0110724 20.9952 0.0371741 18.8238 0.0567839 16.6525C0.0623867 16.0359 0.0577177 15.4192 0.0577177 14.8023C0.0430881 14.8023 0.0284586 14.8023 0.0141403 14.8023Z" fill="#014A9E"/>
<path fill-rule="evenodd" clip-rule="evenodd" d="M105.389 10.324H105.384C105.384 11.3288 105.393 12.3332 105.38 13.3376C105.375 13.7152 105.473 13.9502 105.924 13.9286C107.043 13.8752 108.176 13.92 109.279 13.7648C110.999 13.5227 111.915 12.3087 111.926 10.4745C111.938 8.63293 110.979 7.30441 109.306 7.05251C108.26 6.89507 107.18 6.94946 106.117 6.87917C105.522 6.83973 105.362 7.09831 105.381 7.62787C105.412 8.52575 105.389 9.42521 105.389 10.324ZM100.204 13.6516C100.204 10.8187 100.205 7.98576 100.203 5.15282C100.202 3.87741 100.646 3.31413 101.912 3.31191C104.792 3.30682 107.686 3.23526 110.551 3.46203C115.7 3.86914 118.622 8.76086 116.376 13.1364C115.897 14.0676 115.003 14.8227 114.213 15.5736C113.851 15.9181 113.726 16.1042 114.021 16.5402C115.056 18.0694 116.046 19.6263 117.066 21.1648C117.819 22.2999 117.703 22.846 116.515 23.5788C116.006 23.8928 115.499 24.2099 114.976 24.5015C114.002 25.046 113.302 24.9223 112.598 24.0731C112.342 23.7646 112.128 23.4214 111.915 23.0823C110.878 21.4291 109.809 19.7924 108.831 18.1076C108.4 17.3665 107.892 17.0698 107.003 17.1051C105.214 17.1754 105.56 17.0704 105.507 18.5154C105.461 19.8092 105.534 21.1069 105.55 22.4027C105.566 23.7665 105.165 24.1701 103.768 24.1936C103.219 24.2029 102.67 24.2019 102.121 24.1943C100.733 24.1742 100.187 23.6692 100.146 22.3104C100.119 21.411 100.154 20.5099 100.155 19.6098C100.157 17.6238 100.156 15.6376 100.156 13.6516H100.204Z" fill="#014A9E"/>
<path fill-rule="evenodd" clip-rule="evenodd" d="M82.8511 5.59105C82.8485 4.30523 83.2577 3.81153 84.5362 3.80219C88.1175 3.7764 91.6988 3.77963 95.2801 3.80025C96.4382 3.80702 96.7607 4.19212 96.77 5.38706C96.7728 5.73607 96.7722 6.08508 96.7709 6.43409C96.7658 7.66061 96.3879 8.05119 95.1419 8.05377C93.0992 8.05764 91.0559 8.0715 89.0145 8.01671C88.2904 7.99738 88.0993 8.25099 88.1331 8.93999C88.1818 9.93062 88.1624 10.9267 88.1315 11.919C88.1146 12.4513 88.3235 12.627 88.8304 12.6186C90.5018 12.5915 92.1732 12.5893 93.8443 12.5857C94.9989 12.5831 95.2947 12.8886 95.3084 14.0649C95.3326 16.1915 95.3326 16.1863 93.2033 16.1751C91.7707 16.1677 90.3375 16.2037 88.9062 16.167C88.2232 16.1496 88.029 16.4384 88.0586 17.0767C88.1006 17.9878 88.1226 18.9033 88.085 19.814C88.0535 20.5701 88.3003 20.8469 89.0823 20.8153C91.1228 20.7322 93.1664 20.7235 95.2084 20.6996C96.4296 20.6854 96.7738 21.0348 96.7875 22.2564C96.7935 22.8472 96.7741 23.4382 96.7869 24.0282C96.798 24.5509 96.5554 24.8365 96.0532 24.8938C95.7122 24.9328 95.368 24.9679 95.0253 24.9683C91.7357 24.9741 88.4461 24.9737 85.1565 24.9715C83.4204 24.9702 82.8823 24.4407 82.8715 22.6599C82.8555 20.0564 82.8673 17.4528 82.8673 14.8493C82.853 11.7633 82.8571 8.67702 82.8511 5.59105Z" fill="#014A9E"/>
</svg>
